<mxfile host="app.diagrams.net" modified="2023-03-31T07:08:47.537Z" agent="Mozilla/5.0 (Windows NT 10.0; Win64; x64) AppleWebKit/537.36 (KHTML, like Gecko) Chrome/111.0.0.0 Safari/537.36" etag="5kSozzhMIVWAKLlt5Hck" version="21.1.2" type="device">
  <diagram id="C5RBs43oDa-KdzZeNtuy" name="Page-1">
    <mxGraphModel dx="3434" dy="2616" grid="1" gridSize="10" guides="1" tooltips="1" connect="1" arrows="1" fold="1" page="1" pageScale="1" pageWidth="827" pageHeight="1169" math="0" shadow="0">
      <root>
        <mxCell id="WIyWlLk6GJQsqaUBKTNV-0" />
        <mxCell id="WIyWlLk6GJQsqaUBKTNV-1" parent="WIyWlLk6GJQsqaUBKTNV-0" />
        <mxCell id="zkfFHV4jXpPFQw0GAbJ--0" value="Type_user" style="swimlane;fontStyle=0;align=center;verticalAlign=top;childLayout=stackLayout;horizontal=1;startSize=26;horizontalStack=0;resizeParent=1;resizeLast=0;collapsible=1;marginBottom=0;rounded=0;shadow=0;strokeWidth=1;" parent="WIyWlLk6GJQsqaUBKTNV-1" vertex="1">
          <mxGeometry x="-413" y="90" width="160" height="138" as="geometry">
            <mxRectangle x="230" y="140" width="160" height="26" as="alternateBounds" />
          </mxGeometry>
        </mxCell>
        <mxCell id="zkfFHV4jXpPFQw0GAbJ--1" value="id_type_user" style="text;align=left;verticalAlign=top;spacingLeft=4;spacingRight=4;overflow=hidden;rotatable=0;points=[[0,0.5],[1,0.5]];portConstraint=eastwest;fontStyle=4" parent="zkfFHV4jXpPFQw0GAbJ--0" vertex="1">
          <mxGeometry y="26" width="160" height="26" as="geometry" />
        </mxCell>
        <mxCell id="zkfFHV4jXpPFQw0GAbJ--2" value="nom_type_user" style="text;align=left;verticalAlign=top;spacingLeft=4;spacingRight=4;overflow=hidden;rotatable=0;points=[[0,0.5],[1,0.5]];portConstraint=eastwest;rounded=0;shadow=0;html=0;fontStyle=0" parent="zkfFHV4jXpPFQw0GAbJ--0" vertex="1">
          <mxGeometry y="52" width="160" height="26" as="geometry" />
        </mxCell>
        <mxCell id="zkfFHV4jXpPFQw0GAbJ--3" value="droit (?)" style="text;align=left;verticalAlign=top;spacingLeft=4;spacingRight=4;overflow=hidden;rotatable=0;points=[[0,0.5],[1,0.5]];portConstraint=eastwest;rounded=0;shadow=0;html=0;fontColor=#33FFFF;fontStyle=0" parent="zkfFHV4jXpPFQw0GAbJ--0" vertex="1">
          <mxGeometry y="78" width="160" height="26" as="geometry" />
        </mxCell>
        <mxCell id="OUUwfjkOK5_4Jc8ald6P-48" value="&amp;nbsp;profil_supprimable : bool" style="text;html=1;strokeColor=none;fillColor=none;align=left;verticalAlign=middle;whiteSpace=wrap;rounded=0;fontColor=#33FFFF;fontStyle=0" parent="zkfFHV4jXpPFQw0GAbJ--0" vertex="1">
          <mxGeometry y="104" width="160" height="30" as="geometry" />
        </mxCell>
        <mxCell id="zkfFHV4jXpPFQw0GAbJ--13" value="Type_relation" style="swimlane;fontStyle=0;align=center;verticalAlign=top;childLayout=stackLayout;horizontal=1;startSize=26;horizontalStack=0;resizeParent=1;resizeLast=0;collapsible=1;marginBottom=0;rounded=0;shadow=0;strokeWidth=1;" parent="WIyWlLk6GJQsqaUBKTNV-1" vertex="1">
          <mxGeometry y="-310" width="160" height="90" as="geometry">
            <mxRectangle x="340" y="380" width="170" height="26" as="alternateBounds" />
          </mxGeometry>
        </mxCell>
        <mxCell id="zkfFHV4jXpPFQw0GAbJ--14" value="id_type_relation" style="text;align=left;verticalAlign=top;spacingLeft=4;spacingRight=4;overflow=hidden;rotatable=0;points=[[0,0.5],[1,0.5]];portConstraint=eastwest;fontStyle=4" parent="zkfFHV4jXpPFQw0GAbJ--13" vertex="1">
          <mxGeometry y="26" width="160" height="34" as="geometry" />
        </mxCell>
        <mxCell id="OUUwfjkOK5_4Jc8ald6P-23" value="désignation" style="text;align=left;verticalAlign=top;spacingLeft=4;spacingRight=4;overflow=hidden;rotatable=0;points=[[0,0.5],[1,0.5]];portConstraint=eastwest;fontStyle=0" parent="zkfFHV4jXpPFQw0GAbJ--13" vertex="1">
          <mxGeometry y="60" width="160" height="30" as="geometry" />
        </mxCell>
        <mxCell id="zkfFHV4jXpPFQw0GAbJ--17" value="User" style="swimlane;fontStyle=0;align=center;verticalAlign=top;childLayout=stackLayout;horizontal=1;startSize=26;horizontalStack=0;resizeParent=1;resizeLast=0;collapsible=1;marginBottom=0;rounded=0;shadow=0;strokeWidth=1;" parent="WIyWlLk6GJQsqaUBKTNV-1" vertex="1">
          <mxGeometry x="310" y="-180" width="150" height="470" as="geometry">
            <mxRectangle x="550" y="140" width="160" height="26" as="alternateBounds" />
          </mxGeometry>
        </mxCell>
        <mxCell id="zkfFHV4jXpPFQw0GAbJ--18" value="id_user" style="text;align=left;verticalAlign=top;spacingLeft=4;spacingRight=4;overflow=hidden;rotatable=0;points=[[0,0.5],[1,0.5]];portConstraint=eastwest;fontStyle=4" parent="zkfFHV4jXpPFQw0GAbJ--17" vertex="1">
          <mxGeometry y="26" width="150" height="26" as="geometry" />
        </mxCell>
        <mxCell id="zkfFHV4jXpPFQw0GAbJ--19" value="email" style="text;align=left;verticalAlign=top;spacingLeft=4;spacingRight=4;overflow=hidden;rotatable=0;points=[[0,0.5],[1,0.5]];portConstraint=eastwest;rounded=0;shadow=0;html=0;fontStyle=0" parent="zkfFHV4jXpPFQw0GAbJ--17" vertex="1">
          <mxGeometry y="52" width="150" height="26" as="geometry" />
        </mxCell>
        <mxCell id="OUUwfjkOK5_4Jc8ald6P-54" value="&amp;nbsp;pseudo" style="text;html=1;align=left;verticalAlign=middle;whiteSpace=wrap;rounded=0;shadow=1;fontStyle=0" parent="zkfFHV4jXpPFQw0GAbJ--17" vertex="1">
          <mxGeometry y="78" width="150" height="30" as="geometry" />
        </mxCell>
        <mxCell id="zkfFHV4jXpPFQw0GAbJ--20" value="mdp" style="text;align=left;verticalAlign=middle;spacingLeft=4;spacingRight=4;overflow=hidden;rotatable=0;points=[[0,0.5],[1,0.5]];portConstraint=eastwest;rounded=0;shadow=1;html=0;fontStyle=0;" parent="zkfFHV4jXpPFQw0GAbJ--17" vertex="1">
          <mxGeometry y="108" width="150" height="26" as="geometry" />
        </mxCell>
        <mxCell id="zkfFHV4jXpPFQw0GAbJ--21" value="date_naissance" style="text;align=left;verticalAlign=top;spacingLeft=4;spacingRight=4;overflow=hidden;rotatable=0;points=[[0,0.5],[1,0.5]];portConstraint=eastwest;rounded=0;shadow=0;html=0;fontStyle=0" parent="zkfFHV4jXpPFQw0GAbJ--17" vertex="1">
          <mxGeometry y="134" width="150" height="26" as="geometry" />
        </mxCell>
        <mxCell id="zkfFHV4jXpPFQw0GAbJ--22" value="nom" style="text;align=left;verticalAlign=top;spacingLeft=4;spacingRight=4;overflow=hidden;rotatable=0;points=[[0,0.5],[1,0.5]];portConstraint=eastwest;rounded=0;shadow=0;html=0;fontStyle=0" parent="zkfFHV4jXpPFQw0GAbJ--17" vertex="1">
          <mxGeometry y="160" width="150" height="26" as="geometry" />
        </mxCell>
        <mxCell id="zkfFHV4jXpPFQw0GAbJ--24" value="prenom" style="text;align=left;verticalAlign=top;spacingLeft=4;spacingRight=4;overflow=hidden;rotatable=0;points=[[0,0.5],[1,0.5]];portConstraint=eastwest;fontStyle=0" parent="zkfFHV4jXpPFQw0GAbJ--17" vertex="1">
          <mxGeometry y="186" width="150" height="26" as="geometry" />
        </mxCell>
        <mxCell id="OfmYZ6MIvYoxdJn1wa9R-28" value="&amp;nbsp;langue_preferee" style="text;html=1;strokeColor=none;fillColor=none;align=left;verticalAlign=middle;whiteSpace=wrap;rounded=0;fontStyle=0" parent="zkfFHV4jXpPFQw0GAbJ--17" vertex="1">
          <mxGeometry y="212" width="150" height="30" as="geometry" />
        </mxCell>
        <mxCell id="OfmYZ6MIvYoxdJn1wa9R-60" value="&lt;font&gt;&amp;nbsp;date_derniere_connexion&lt;/font&gt;" style="text;html=1;strokeColor=none;fillColor=none;align=left;verticalAlign=middle;whiteSpace=wrap;rounded=0;fontColor=#000000;fontStyle=0" parent="zkfFHV4jXpPFQw0GAbJ--17" vertex="1">
          <mxGeometry y="242" width="150" height="30" as="geometry" />
        </mxCell>
        <mxCell id="OUUwfjkOK5_4Jc8ald6P-41" value="&amp;nbsp;validation_rgpd : bool" style="text;html=1;strokeColor=none;fillColor=none;align=left;verticalAlign=middle;whiteSpace=wrap;rounded=0;fontColor=#000000;fontStyle=0" parent="zkfFHV4jXpPFQw0GAbJ--17" vertex="1">
          <mxGeometry y="272" width="150" height="30" as="geometry" />
        </mxCell>
        <mxCell id="OUUwfjkOK5_4Jc8ald6P-51" value="&amp;nbsp;datetime_rgpd" style="text;html=1;strokeColor=none;fillColor=none;align=left;verticalAlign=middle;whiteSpace=wrap;rounded=0;fontColor=#000000;fontStyle=0" parent="zkfFHV4jXpPFQw0GAbJ--17" vertex="1">
          <mxGeometry y="302" width="150" height="30" as="geometry" />
        </mxCell>
        <mxCell id="OUUwfjkOK5_4Jc8ald6P-50" value="&amp;nbsp;validation_ accord_confidentialité : bool" style="text;html=1;strokeColor=none;fillColor=none;align=left;verticalAlign=middle;whiteSpace=wrap;rounded=0;fontColor=#000000;fontStyle=0" parent="zkfFHV4jXpPFQw0GAbJ--17" vertex="1">
          <mxGeometry y="332" width="150" height="30" as="geometry" />
        </mxCell>
        <mxCell id="OUUwfjkOK5_4Jc8ald6P-52" value="&amp;nbsp;datetime_confidentialite" style="text;html=1;strokeColor=none;fillColor=none;align=left;verticalAlign=middle;whiteSpace=wrap;rounded=0;fontColor=#000000;fontStyle=0" parent="zkfFHV4jXpPFQw0GAbJ--17" vertex="1">
          <mxGeometry y="362" width="150" height="30" as="geometry" />
        </mxCell>
        <mxCell id="OUUwfjkOK5_4Jc8ald6P-53" value="&amp;nbsp;numéro de téléphone" style="text;html=1;align=left;verticalAlign=middle;whiteSpace=wrap;rounded=0;fontStyle=0" parent="zkfFHV4jXpPFQw0GAbJ--17" vertex="1">
          <mxGeometry y="392" width="150" height="30" as="geometry" />
        </mxCell>
        <mxCell id="OUUwfjkOK5_4Jc8ald6P-55" value="&amp;nbsp;nom de jeune fille" style="text;html=1;strokeColor=none;fillColor=none;align=left;verticalAlign=middle;whiteSpace=wrap;rounded=0;fontColor=#33FFFF;fontStyle=0" parent="zkfFHV4jXpPFQw0GAbJ--17" vertex="1">
          <mxGeometry y="422" width="150" height="30" as="geometry" />
        </mxCell>
        <mxCell id="OfmYZ6MIvYoxdJn1wa9R-1" value="" style="endArrow=none;html=1;rounded=0;fontStyle=0" parent="WIyWlLk6GJQsqaUBKTNV-1" source="zkfFHV4jXpPFQw0GAbJ--17" target="-wITAHeO5H85VnHgorWc-12" edge="1">
          <mxGeometry width="50" height="50" relative="1" as="geometry">
            <mxPoint x="460" y="370" as="sourcePoint" />
            <mxPoint x="680" y="25" as="targetPoint" />
          </mxGeometry>
        </mxCell>
        <mxCell id="-wITAHeO5H85VnHgorWc-23" value="0,N" style="edgeLabel;html=1;align=center;verticalAlign=middle;resizable=0;points=[];fontStyle=0" parent="OfmYZ6MIvYoxdJn1wa9R-1" vertex="1" connectable="0">
          <mxGeometry x="-0.3996" y="-1" relative="1" as="geometry">
            <mxPoint as="offset" />
          </mxGeometry>
        </mxCell>
        <mxCell id="OfmYZ6MIvYoxdJn1wa9R-15" value="Type_ressource" style="swimlane;fontStyle=0" parent="WIyWlLk6GJQsqaUBKTNV-1" vertex="1">
          <mxGeometry x="980" y="420" width="200" height="90" as="geometry" />
        </mxCell>
        <mxCell id="OfmYZ6MIvYoxdJn1wa9R-21" value="&amp;nbsp;id_type_ressource" style="text;html=1;strokeColor=none;fillColor=none;align=left;verticalAlign=middle;whiteSpace=wrap;rounded=0;fontStyle=4" parent="OfmYZ6MIvYoxdJn1wa9R-15" vertex="1">
          <mxGeometry x="10" y="20" width="190" height="30" as="geometry" />
        </mxCell>
        <mxCell id="OfmYZ6MIvYoxdJn1wa9R-26" value="nom_type_ressource" style="text;html=1;strokeColor=none;fillColor=none;align=left;verticalAlign=middle;whiteSpace=wrap;rounded=0;fontStyle=0" parent="OfmYZ6MIvYoxdJn1wa9R-15" vertex="1">
          <mxGeometry x="10" y="50" width="190" height="30" as="geometry" />
        </mxCell>
        <mxCell id="OfmYZ6MIvYoxdJn1wa9R-18" value="" style="endArrow=none;html=1;rounded=0;exitX=0.75;exitY=1;exitDx=0;exitDy=0;fontStyle=0" parent="WIyWlLk6GJQsqaUBKTNV-1" source="UGLX3xCfsKA-mw3d5sM1-3" target="OfmYZ6MIvYoxdJn1wa9R-15" edge="1">
          <mxGeometry width="50" height="50" relative="1" as="geometry">
            <mxPoint x="1080" y="170" as="sourcePoint" />
            <mxPoint x="600" y="440" as="targetPoint" />
          </mxGeometry>
        </mxCell>
        <mxCell id="OfmYZ6MIvYoxdJn1wa9R-38" value="Commentaire" style="swimlane;fontStyle=0;childLayout=stackLayout;horizontal=1;startSize=30;horizontalStack=0;resizeParent=1;resizeParentMax=0;resizeLast=0;collapsible=1;marginBottom=0;" parent="WIyWlLk6GJQsqaUBKTNV-1" vertex="1">
          <mxGeometry x="1510" y="-430" width="140" height="120" as="geometry" />
        </mxCell>
        <mxCell id="OfmYZ6MIvYoxdJn1wa9R-39" value="id_commentaire" style="text;strokeColor=none;fillColor=none;align=left;verticalAlign=middle;spacingLeft=4;spacingRight=4;overflow=hidden;points=[[0,0.5],[1,0.5]];portConstraint=eastwest;rotatable=0;fontStyle=4" parent="OfmYZ6MIvYoxdJn1wa9R-38" vertex="1">
          <mxGeometry y="30" width="140" height="30" as="geometry" />
        </mxCell>
        <mxCell id="OfmYZ6MIvYoxdJn1wa9R-42" value="datetime_commentaire" style="text;strokeColor=none;fillColor=none;align=left;verticalAlign=middle;spacingLeft=4;spacingRight=4;overflow=hidden;points=[[0,0.5],[1,0.5]];portConstraint=eastwest;rotatable=0;fontStyle=0" parent="OfmYZ6MIvYoxdJn1wa9R-38" vertex="1">
          <mxGeometry y="60" width="140" height="30" as="geometry" />
        </mxCell>
        <mxCell id="OfmYZ6MIvYoxdJn1wa9R-43" value="commentaire" style="text;strokeColor=none;fillColor=none;align=left;verticalAlign=middle;spacingLeft=4;spacingRight=4;overflow=hidden;points=[[0,0.5],[1,0.5]];portConstraint=eastwest;rotatable=0;fontStyle=0" parent="OfmYZ6MIvYoxdJn1wa9R-38" vertex="1">
          <mxGeometry y="90" width="140" height="30" as="geometry" />
        </mxCell>
        <mxCell id="OUUwfjkOK5_4Jc8ald6P-3" value="Ticket (via logiciel de gestion de ticket GPI?)" style="swimlane;fontStyle=0;childLayout=stackLayout;horizontal=1;startSize=30;horizontalStack=0;resizeParent=1;resizeParentMax=0;resizeLast=0;collapsible=1;marginBottom=0;fillColor=#e1d5e7;strokeColor=#9673a6;" parent="WIyWlLk6GJQsqaUBKTNV-1" vertex="1">
          <mxGeometry x="260" y="-640" width="260" height="180" as="geometry" />
        </mxCell>
        <mxCell id="OUUwfjkOK5_4Jc8ald6P-4" value="id_ticket" style="text;strokeColor=none;fillColor=none;align=left;verticalAlign=middle;spacingLeft=4;spacingRight=4;overflow=hidden;points=[[0,0.5],[1,0.5]];portConstraint=eastwest;rotatable=0;fontStyle=4" parent="OUUwfjkOK5_4Jc8ald6P-3" vertex="1">
          <mxGeometry y="30" width="260" height="30" as="geometry" />
        </mxCell>
        <mxCell id="OUUwfjkOK5_4Jc8ald6P-5" value="datetime_ticket" style="text;strokeColor=none;fillColor=none;align=left;verticalAlign=middle;spacingLeft=4;spacingRight=4;overflow=hidden;points=[[0,0.5],[1,0.5]];portConstraint=eastwest;rotatable=0;fontStyle=0" parent="OUUwfjkOK5_4Jc8ald6P-3" vertex="1">
          <mxGeometry y="60" width="260" height="30" as="geometry" />
        </mxCell>
        <mxCell id="OUUwfjkOK5_4Jc8ald6P-8" value="type_ticket" style="text;strokeColor=none;fillColor=none;align=left;verticalAlign=middle;spacingLeft=4;spacingRight=4;overflow=hidden;points=[[0,0.5],[1,0.5]];portConstraint=eastwest;rotatable=0;fontStyle=0" parent="OUUwfjkOK5_4Jc8ald6P-3" vertex="1">
          <mxGeometry y="90" width="260" height="30" as="geometry" />
        </mxCell>
        <mxCell id="OUUwfjkOK5_4Jc8ald6P-10" value="statut" style="text;strokeColor=none;fillColor=none;align=left;verticalAlign=middle;spacingLeft=4;spacingRight=4;overflow=hidden;points=[[0,0.5],[1,0.5]];portConstraint=eastwest;rotatable=0;fontStyle=0" parent="OUUwfjkOK5_4Jc8ald6P-3" vertex="1">
          <mxGeometry y="120" width="260" height="30" as="geometry" />
        </mxCell>
        <mxCell id="OUUwfjkOK5_4Jc8ald6P-7" value="message_ticket" style="text;strokeColor=none;fillColor=none;align=left;verticalAlign=middle;spacingLeft=4;spacingRight=4;overflow=hidden;points=[[0,0.5],[1,0.5]];portConstraint=eastwest;rotatable=0;fontStyle=0" parent="OUUwfjkOK5_4Jc8ald6P-3" vertex="1">
          <mxGeometry y="150" width="260" height="30" as="geometry" />
        </mxCell>
        <mxCell id="OUUwfjkOK5_4Jc8ald6P-15" value="Publication" style="swimlane;fontStyle=0;childLayout=stackLayout;horizontal=1;startSize=30;horizontalStack=0;resizeParent=1;resizeParentMax=0;resizeLast=0;collapsible=1;marginBottom=0;" parent="WIyWlLk6GJQsqaUBKTNV-1" vertex="1">
          <mxGeometry x="-100" y="270" width="140" height="60" as="geometry" />
        </mxCell>
        <mxCell id="OUUwfjkOK5_4Jc8ald6P-16" value="id_publication" style="text;strokeColor=none;fillColor=none;align=left;verticalAlign=middle;spacingLeft=4;spacingRight=4;overflow=hidden;points=[[0,0.5],[1,0.5]];portConstraint=eastwest;rotatable=0;fontStyle=4" parent="OUUwfjkOK5_4Jc8ald6P-15" vertex="1">
          <mxGeometry y="30" width="140" height="30" as="geometry" />
        </mxCell>
        <mxCell id="OUUwfjkOK5_4Jc8ald6P-35" value="Rgpd" style="swimlane;fontStyle=0;childLayout=stackLayout;horizontal=1;startSize=30;horizontalStack=0;resizeParent=1;resizeParentMax=0;resizeLast=0;collapsible=1;marginBottom=0;fillColor=#e1d5e7;strokeColor=#9673a6;" parent="WIyWlLk6GJQsqaUBKTNV-1" vertex="1">
          <mxGeometry x="570" y="-630" width="220" height="120" as="geometry" />
        </mxCell>
        <mxCell id="OUUwfjkOK5_4Jc8ald6P-36" value="id_rgpd" style="text;strokeColor=none;fillColor=none;align=left;verticalAlign=middle;spacingLeft=4;spacingRight=4;overflow=hidden;points=[[0,0.5],[1,0.5]];portConstraint=eastwest;rotatable=0;fontColor=#000000;fontStyle=4" parent="OUUwfjkOK5_4Jc8ald6P-35" vertex="1">
          <mxGeometry y="30" width="220" height="30" as="geometry" />
        </mxCell>
        <mxCell id="OUUwfjkOK5_4Jc8ald6P-37" value="limite_duree_connexion (15 jours pour &#xa;supprimer le profil user selon RGPD)" style="text;strokeColor=none;fillColor=none;align=left;verticalAlign=middle;spacingLeft=4;spacingRight=4;overflow=hidden;points=[[0,0.5],[1,0.5]];portConstraint=eastwest;rotatable=0;fontColor=#000000;fontStyle=0" parent="OUUwfjkOK5_4Jc8ald6P-35" vertex="1">
          <mxGeometry y="60" width="220" height="60" as="geometry" />
        </mxCell>
        <mxCell id="OUUwfjkOK5_4Jc8ald6P-40" value="" style="shape=note;whiteSpace=wrap;html=1;backgroundOutline=1;darkOpacity=0.05;fontColor=#33FFFF;fontStyle=0" parent="WIyWlLk6GJQsqaUBKTNV-1" vertex="1">
          <mxGeometry x="10" y="920" width="210" height="240" as="geometry" />
        </mxCell>
        <mxCell id="OUUwfjkOK5_4Jc8ald6P-42" value="Texte en bleu : pas sûr, à voir en fonction des groupes" style="text;html=1;strokeColor=none;fillColor=none;align=center;verticalAlign=middle;whiteSpace=wrap;rounded=0;fontColor=#33FFFF;fontStyle=0" parent="WIyWlLk6GJQsqaUBKTNV-1" vertex="1">
          <mxGeometry x="10" y="950" width="210" height="30" as="geometry" />
        </mxCell>
        <mxCell id="OUUwfjkOK5_4Jc8ald6P-43" value="Explications" style="text;html=1;strokeColor=none;fillColor=none;align=center;verticalAlign=middle;whiteSpace=wrap;rounded=0;fontColor=#000000;fontStyle=1" parent="WIyWlLk6GJQsqaUBKTNV-1" vertex="1">
          <mxGeometry x="10" y="920" width="180" height="30" as="geometry" />
        </mxCell>
        <mxCell id="OUUwfjkOK5_4Jc8ald6P-44" value="Entités &lt;u&gt;en bleu&lt;/u&gt; : à revoir en fonction des groupes" style="text;html=1;strokeColor=none;fillColor=none;align=center;verticalAlign=middle;whiteSpace=wrap;rounded=0;fontColor=#000000;fontStyle=0" parent="WIyWlLk6GJQsqaUBKTNV-1" vertex="1">
          <mxGeometry x="10" y="990" width="210" height="30" as="geometry" />
        </mxCell>
        <mxCell id="OUUwfjkOK5_4Jc8ald6P-45" value="Entités &lt;u&gt;en violet&lt;/u&gt; : obligatoire selon le sujet, revoir l&#39;affichage/nom selon les groupes" style="text;html=1;strokeColor=none;fillColor=none;align=center;verticalAlign=middle;whiteSpace=wrap;rounded=0;fontColor=#000000;fontStyle=0" parent="WIyWlLk6GJQsqaUBKTNV-1" vertex="1">
          <mxGeometry x="10" y="1030" width="210" height="40" as="geometry" />
        </mxCell>
        <mxCell id="OUUwfjkOK5_4Jc8ald6P-46" value="&lt;span&gt;Données en italique : données personnelles (RGPD, CNIL)&lt;/span&gt;" style="text;html=1;strokeColor=none;fillColor=none;align=center;verticalAlign=middle;whiteSpace=wrap;rounded=0;fontColor=#000000;fontStyle=0" parent="WIyWlLk6GJQsqaUBKTNV-1" vertex="1">
          <mxGeometry x="10" y="1080" width="210" height="30" as="geometry" />
        </mxCell>
        <mxCell id="OUUwfjkOK5_4Jc8ald6P-47" value="&lt;b&gt;Données en gras : données sensibles à sécuriser&lt;/b&gt;" style="text;html=1;strokeColor=none;fillColor=none;align=center;verticalAlign=middle;whiteSpace=wrap;rounded=0;fontColor=#000000;fontStyle=0" parent="WIyWlLk6GJQsqaUBKTNV-1" vertex="1">
          <mxGeometry x="10" y="1120" width="210" height="30" as="geometry" />
        </mxCell>
        <mxCell id="OUUwfjkOK5_4Jc8ald6P-56" value="Traduction" style="swimlane;fontStyle=0;childLayout=stackLayout;horizontal=1;startSize=30;horizontalStack=0;resizeParent=1;resizeParentMax=0;resizeLast=0;collapsible=1;marginBottom=0;fillColor=#dae8fc;strokeColor=#6c8ebf;" parent="WIyWlLk6GJQsqaUBKTNV-1" vertex="1">
          <mxGeometry x="-170" y="-650" width="140" height="90" as="geometry" />
        </mxCell>
        <mxCell id="OUUwfjkOK5_4Jc8ald6P-57" value="id_traduction" style="text;strokeColor=none;fillColor=none;align=left;verticalAlign=middle;spacingLeft=4;spacingRight=4;overflow=hidden;points=[[0,0.5],[1,0.5]];portConstraint=eastwest;rotatable=0;fontColor=#000000;fontStyle=4" parent="OUUwfjkOK5_4Jc8ald6P-56" vertex="1">
          <mxGeometry y="30" width="140" height="30" as="geometry" />
        </mxCell>
        <mxCell id="OUUwfjkOK5_4Jc8ald6P-58" value="langue : String" style="text;strokeColor=none;fillColor=none;align=left;verticalAlign=middle;spacingLeft=4;spacingRight=4;overflow=hidden;points=[[0,0.5],[1,0.5]];portConstraint=eastwest;rotatable=0;fontColor=#000000;fontStyle=0" parent="OUUwfjkOK5_4Jc8ald6P-56" vertex="1">
          <mxGeometry y="60" width="140" height="30" as="geometry" />
        </mxCell>
        <mxCell id="H3o8iUBTMVEMvmqAIvak-0" value="Privée" style="swimlane;fontStyle=0;childLayout=stackLayout;horizontal=1;startSize=30;horizontalStack=0;resizeParent=1;resizeParentMax=0;resizeLast=0;collapsible=1;marginBottom=0;whiteSpace=wrap;html=1;" parent="WIyWlLk6GJQsqaUBKTNV-1" vertex="1">
          <mxGeometry x="-200" y="530" width="140" height="60" as="geometry" />
        </mxCell>
        <mxCell id="H3o8iUBTMVEMvmqAIvak-4" value="Public" style="swimlane;fontStyle=0;childLayout=stackLayout;horizontal=1;startSize=30;horizontalStack=0;resizeParent=1;resizeParentMax=0;resizeLast=0;collapsible=1;marginBottom=0;whiteSpace=wrap;html=1;" parent="WIyWlLk6GJQsqaUBKTNV-1" vertex="1">
          <mxGeometry y="530" width="140" height="60" as="geometry" />
        </mxCell>
        <mxCell id="H3o8iUBTMVEMvmqAIvak-6" value="" style="endArrow=none;html=1;rounded=0;fontStyle=0" parent="WIyWlLk6GJQsqaUBKTNV-1" source="OUUwfjkOK5_4Jc8ald6P-15" target="H3o8iUBTMVEMvmqAIvak-0" edge="1">
          <mxGeometry width="50" height="50" relative="1" as="geometry">
            <mxPoint x="270" y="648" as="sourcePoint" />
            <mxPoint x="420" y="650" as="targetPoint" />
          </mxGeometry>
        </mxCell>
        <mxCell id="H3o8iUBTMVEMvmqAIvak-8" value="" style="endArrow=none;html=1;rounded=0;fontStyle=0" parent="WIyWlLk6GJQsqaUBKTNV-1" source="H3o8iUBTMVEMvmqAIvak-4" target="OUUwfjkOK5_4Jc8ald6P-15" edge="1">
          <mxGeometry width="50" height="50" relative="1" as="geometry">
            <mxPoint x="290" y="668" as="sourcePoint" />
            <mxPoint x="440" y="670" as="targetPoint" />
          </mxGeometry>
        </mxCell>
        <mxCell id="H3o8iUBTMVEMvmqAIvak-15" value="" style="endArrow=none;html=1;rounded=0;fontStyle=0" parent="WIyWlLk6GJQsqaUBKTNV-1" source="OUUwfjkOK5_4Jc8ald6P-15" target="-wITAHeO5H85VnHgorWc-34" edge="1">
          <mxGeometry width="50" height="50" relative="1" as="geometry">
            <mxPoint x="607" y="452" as="sourcePoint" />
            <mxPoint x="460" y="505" as="targetPoint" />
          </mxGeometry>
        </mxCell>
        <mxCell id="H3o8iUBTMVEMvmqAIvak-17" value="" style="endArrow=none;html=1;rounded=0;exitX=0;exitY=1;exitDx=0;exitDy=0;fontStyle=0" parent="WIyWlLk6GJQsqaUBKTNV-1" source="UGLX3xCfsKA-mw3d5sM1-3" target="-wITAHeO5H85VnHgorWc-34" edge="1">
          <mxGeometry width="50" height="50" relative="1" as="geometry">
            <mxPoint x="990" y="160" as="sourcePoint" />
            <mxPoint x="600" y="470.818181818182" as="targetPoint" />
            <Array as="points">
              <mxPoint x="820" y="390" />
            </Array>
          </mxGeometry>
        </mxCell>
        <mxCell id="-wITAHeO5H85VnHgorWc-52" value="1,N" style="edgeLabel;html=1;align=center;verticalAlign=middle;resizable=0;points=[];fontStyle=0" parent="H3o8iUBTMVEMvmqAIvak-17" vertex="1" connectable="0">
          <mxGeometry x="-0.1643" y="3" relative="1" as="geometry">
            <mxPoint as="offset" />
          </mxGeometry>
        </mxCell>
        <mxCell id="-wITAHeO5H85VnHgorWc-0" value="" style="ellipse;whiteSpace=wrap;html=1;fontStyle=0" parent="WIyWlLk6GJQsqaUBKTNV-1" vertex="1">
          <mxGeometry x="650" y="24" width="120" height="70" as="geometry" />
        </mxCell>
        <mxCell id="-wITAHeO5H85VnHgorWc-1" value="" style="endArrow=none;html=1;rounded=0;fontStyle=0" parent="WIyWlLk6GJQsqaUBKTNV-1" source="-wITAHeO5H85VnHgorWc-0" target="zkfFHV4jXpPFQw0GAbJ--17" edge="1">
          <mxGeometry width="50" height="50" relative="1" as="geometry">
            <mxPoint x="200" y="16" as="sourcePoint" />
            <mxPoint x="320" y="-49" as="targetPoint" />
          </mxGeometry>
        </mxCell>
        <mxCell id="-wITAHeO5H85VnHgorWc-47" value="0,N" style="edgeLabel;html=1;align=center;verticalAlign=middle;resizable=0;points=[];fontStyle=0" parent="-wITAHeO5H85VnHgorWc-1" vertex="1" connectable="0">
          <mxGeometry x="0.2" y="-1" relative="1" as="geometry">
            <mxPoint as="offset" />
          </mxGeometry>
        </mxCell>
        <mxCell id="-wITAHeO5H85VnHgorWc-2" value="" style="endArrow=none;html=1;rounded=0;fontStyle=0" parent="WIyWlLk6GJQsqaUBKTNV-1" source="-wITAHeO5H85VnHgorWc-0" target="UGLX3xCfsKA-mw3d5sM1-3" edge="1">
          <mxGeometry width="50" height="50" relative="1" as="geometry">
            <mxPoint x="504" y="338" as="sourcePoint" />
            <mxPoint x="980" y="45.135135135135215" as="targetPoint" />
          </mxGeometry>
        </mxCell>
        <mxCell id="-wITAHeO5H85VnHgorWc-53" value="1,1" style="edgeLabel;html=1;align=center;verticalAlign=middle;resizable=0;points=[];fontStyle=0" parent="-wITAHeO5H85VnHgorWc-2" vertex="1" connectable="0">
          <mxGeometry x="0.3045" y="2" relative="1" as="geometry">
            <mxPoint as="offset" />
          </mxGeometry>
        </mxCell>
        <mxCell id="-wITAHeO5H85VnHgorWc-4" value="favoris" style="text;align=left;verticalAlign=top;spacingLeft=4;spacingRight=4;overflow=hidden;rotatable=0;points=[[0,0.5],[1,0.5]];portConstraint=eastwest;fontStyle=0" parent="WIyWlLk6GJQsqaUBKTNV-1" vertex="1">
          <mxGeometry x="685" y="64" width="50" height="30" as="geometry" />
        </mxCell>
        <mxCell id="-wITAHeO5H85VnHgorWc-10" value="" style="endArrow=none;html=1;rounded=0;entryX=0;entryY=0.25;entryDx=0;entryDy=0;fontStyle=0" parent="WIyWlLk6GJQsqaUBKTNV-1" source="-wITAHeO5H85VnHgorWc-26" target="OUUwfjkOK5_4Jc8ald6P-51" edge="1">
          <mxGeometry width="50" height="50" relative="1" as="geometry">
            <mxPoint x="23" y="-12" as="sourcePoint" />
            <mxPoint x="50" y="60" as="targetPoint" />
          </mxGeometry>
        </mxCell>
        <mxCell id="-wITAHeO5H85VnHgorWc-29" value="1,1" style="edgeLabel;html=1;align=center;verticalAlign=middle;resizable=0;points=[];fontStyle=0" parent="-wITAHeO5H85VnHgorWc-10" vertex="1" connectable="0">
          <mxGeometry x="0.3714" y="-1" relative="1" as="geometry">
            <mxPoint x="-8" as="offset" />
          </mxGeometry>
        </mxCell>
        <mxCell id="-wITAHeO5H85VnHgorWc-12" value="" style="ellipse;whiteSpace=wrap;html=1;fontStyle=0" parent="WIyWlLk6GJQsqaUBKTNV-1" vertex="1">
          <mxGeometry x="330" y="-350" width="120" height="70" as="geometry" />
        </mxCell>
        <mxCell id="-wITAHeO5H85VnHgorWc-13" value="CREER" style="text;align=left;verticalAlign=top;spacingLeft=4;spacingRight=4;overflow=hidden;rotatable=0;points=[[0,0.5],[1,0.5]];portConstraint=eastwest;fontStyle=4" parent="WIyWlLk6GJQsqaUBKTNV-1" vertex="1">
          <mxGeometry x="357.5" y="-330" width="65" height="30" as="geometry" />
        </mxCell>
        <mxCell id="-wITAHeO5H85VnHgorWc-16" value="" style="endArrow=none;html=1;rounded=0;fontStyle=0" parent="WIyWlLk6GJQsqaUBKTNV-1" source="-wITAHeO5H85VnHgorWc-12" target="OUUwfjkOK5_4Jc8ald6P-3" edge="1">
          <mxGeometry width="50" height="50" relative="1" as="geometry">
            <mxPoint x="398" y="-170" as="sourcePoint" />
            <mxPoint x="400" y="-270" as="targetPoint" />
          </mxGeometry>
        </mxCell>
        <mxCell id="-wITAHeO5H85VnHgorWc-24" value="1,1" style="edgeLabel;html=1;align=center;verticalAlign=middle;resizable=0;points=[];fontStyle=0" parent="-wITAHeO5H85VnHgorWc-16" vertex="1" connectable="0">
          <mxGeometry x="0.475" y="1" relative="1" as="geometry">
            <mxPoint as="offset" />
          </mxGeometry>
        </mxCell>
        <mxCell id="-wITAHeO5H85VnHgorWc-17" value="" style="ellipse;whiteSpace=wrap;html=1;fontStyle=0" parent="WIyWlLk6GJQsqaUBKTNV-1" vertex="1">
          <mxGeometry x="20" y="-150" width="120" height="70" as="geometry" />
        </mxCell>
        <mxCell id="-wITAHeO5H85VnHgorWc-18" value="POUVOIR" style="text;align=left;verticalAlign=top;spacingLeft=4;spacingRight=4;overflow=hidden;rotatable=0;points=[[0,0.5],[1,0.5]];portConstraint=eastwest;fontStyle=4" parent="WIyWlLk6GJQsqaUBKTNV-1" vertex="1">
          <mxGeometry x="42.5" y="-130" width="75" height="30" as="geometry" />
        </mxCell>
        <mxCell id="-wITAHeO5H85VnHgorWc-19" value="" style="endArrow=none;html=1;rounded=0;fontStyle=0;exitX=0;exitY=0.5;exitDx=0;exitDy=0;" parent="WIyWlLk6GJQsqaUBKTNV-1" source="zkfFHV4jXpPFQw0GAbJ--19" target="-wITAHeO5H85VnHgorWc-17" edge="1">
          <mxGeometry width="50" height="50" relative="1" as="geometry">
            <mxPoint x="398" y="-170" as="sourcePoint" />
            <mxPoint x="400" y="-270" as="targetPoint" />
          </mxGeometry>
        </mxCell>
        <mxCell id="-wITAHeO5H85VnHgorWc-21" value="0,N" style="edgeLabel;html=1;align=center;verticalAlign=middle;resizable=0;points=[];fontStyle=0" parent="-wITAHeO5H85VnHgorWc-19" vertex="1" connectable="0">
          <mxGeometry x="0.2243" y="2" relative="1" as="geometry">
            <mxPoint as="offset" />
          </mxGeometry>
        </mxCell>
        <mxCell id="-wITAHeO5H85VnHgorWc-20" value="" style="endArrow=none;html=1;rounded=0;fontStyle=0" parent="WIyWlLk6GJQsqaUBKTNV-1" source="-wITAHeO5H85VnHgorWc-17" target="zkfFHV4jXpPFQw0GAbJ--13" edge="1">
          <mxGeometry width="50" height="50" relative="1" as="geometry">
            <mxPoint x="470" y="-53" as="sourcePoint" />
            <mxPoint x="550" y="-182" as="targetPoint" />
          </mxGeometry>
        </mxCell>
        <mxCell id="-wITAHeO5H85VnHgorWc-22" value="0,N" style="edgeLabel;html=1;align=center;verticalAlign=middle;resizable=0;points=[];fontStyle=0" parent="-wITAHeO5H85VnHgorWc-20" vertex="1" connectable="0">
          <mxGeometry x="0.3642" y="2" relative="1" as="geometry">
            <mxPoint as="offset" />
          </mxGeometry>
        </mxCell>
        <mxCell id="-wITAHeO5H85VnHgorWc-26" value="" style="ellipse;whiteSpace=wrap;html=1;fontStyle=0" parent="WIyWlLk6GJQsqaUBKTNV-1" vertex="1">
          <mxGeometry x="-70" y="124" width="120" height="70" as="geometry" />
        </mxCell>
        <mxCell id="-wITAHeO5H85VnHgorWc-27" value="Avoir" style="text;align=left;verticalAlign=top;spacingLeft=4;spacingRight=4;overflow=hidden;rotatable=0;points=[[0,0.5],[1,0.5]];portConstraint=eastwest;fontStyle=4" parent="WIyWlLk6GJQsqaUBKTNV-1" vertex="1">
          <mxGeometry x="-35" y="144" width="50" height="30" as="geometry" />
        </mxCell>
        <mxCell id="-wITAHeO5H85VnHgorWc-28" value="" style="endArrow=none;html=1;rounded=0;fontStyle=0" parent="WIyWlLk6GJQsqaUBKTNV-1" source="-wITAHeO5H85VnHgorWc-26" target="zkfFHV4jXpPFQw0GAbJ--0" edge="1">
          <mxGeometry width="50" height="50" relative="1" as="geometry">
            <mxPoint x="-100" y="-6" as="sourcePoint" />
            <mxPoint x="-40" y="-6" as="targetPoint" />
          </mxGeometry>
        </mxCell>
        <mxCell id="-wITAHeO5H85VnHgorWc-30" value="O,N" style="edgeLabel;html=1;align=center;verticalAlign=middle;resizable=0;points=[];fontStyle=0" parent="-wITAHeO5H85VnHgorWc-28" vertex="1" connectable="0">
          <mxGeometry x="0.4" y="1" relative="1" as="geometry">
            <mxPoint as="offset" />
          </mxGeometry>
        </mxCell>
        <mxCell id="-wITAHeO5H85VnHgorWc-34" value="" style="ellipse;whiteSpace=wrap;html=1;fontStyle=0" parent="WIyWlLk6GJQsqaUBKTNV-1" vertex="1">
          <mxGeometry x="420" y="410" width="200" height="100" as="geometry" />
        </mxCell>
        <mxCell id="-wITAHeO5H85VnHgorWc-38" value="" style="endArrow=none;html=1;rounded=0;fontStyle=0" parent="WIyWlLk6GJQsqaUBKTNV-1" source="-wITAHeO5H85VnHgorWc-34" target="zkfFHV4jXpPFQw0GAbJ--17" edge="1">
          <mxGeometry width="50" height="50" relative="1" as="geometry">
            <mxPoint x="670" y="79" as="sourcePoint" />
            <mxPoint x="480" y="79" as="targetPoint" />
          </mxGeometry>
        </mxCell>
        <mxCell id="-wITAHeO5H85VnHgorWc-41" value="0,N" style="edgeLabel;html=1;align=center;verticalAlign=middle;resizable=0;points=[];fontStyle=0" parent="-wITAHeO5H85VnHgorWc-38" vertex="1" connectable="0">
          <mxGeometry x="0.3971" relative="1" as="geometry">
            <mxPoint x="12" y="27" as="offset" />
          </mxGeometry>
        </mxCell>
        <mxCell id="-wITAHeO5H85VnHgorWc-42" value="id_controle" style="text;strokeColor=none;fillColor=none;align=left;verticalAlign=middle;spacingLeft=4;spacingRight=4;overflow=hidden;points=[[0,0.5],[1,0.5]];portConstraint=eastwest;rotatable=0;fontStyle=4" parent="WIyWlLk6GJQsqaUBKTNV-1" vertex="1">
          <mxGeometry x="470" y="450" width="140" height="30" as="geometry" />
        </mxCell>
        <mxCell id="-wITAHeO5H85VnHgorWc-46" value="&lt;span style=&quot;color: rgb(0, 0, 0); font-family: Helvetica; font-size: 12px; font-variant-ligatures: normal; font-variant-caps: normal; letter-spacing: normal; orphans: 2; text-align: center; text-indent: 0px; text-transform: none; widows: 2; word-spacing: 0px; -webkit-text-stroke-width: 0px; background-color: rgb(251, 251, 251); text-decoration-thickness: initial; text-decoration-style: initial; text-decoration-color: initial; float: none; display: inline !important;&quot;&gt;&lt;u style=&quot;&quot;&gt;&lt;b&gt;Controlé&lt;/b&gt;&lt;/u&gt;&lt;/span&gt;" style="text;whiteSpace=wrap;html=1;fontStyle=0" parent="WIyWlLk6GJQsqaUBKTNV-1" vertex="1">
          <mxGeometry x="480" y="420" width="110" height="30" as="geometry" />
        </mxCell>
        <mxCell id="-wITAHeO5H85VnHgorWc-49" value="Poster" style="text;align=left;verticalAlign=top;spacingLeft=4;spacingRight=4;overflow=hidden;rotatable=0;points=[[0,0.5],[1,0.5]];portConstraint=eastwest;fontStyle=4" parent="WIyWlLk6GJQsqaUBKTNV-1" vertex="1">
          <mxGeometry x="685" y="34" width="67.5" height="30" as="geometry" />
        </mxCell>
        <mxCell id="UGLX3xCfsKA-mw3d5sM1-3" value="Ressource" style="swimlane;fontStyle=0;align=center;verticalAlign=top;childLayout=stackLayout;horizontal=1;startSize=26;horizontalStack=0;resizeParent=1;resizeLast=0;collapsible=1;marginBottom=0;rounded=0;shadow=0;strokeWidth=1;" parent="WIyWlLk6GJQsqaUBKTNV-1" vertex="1">
          <mxGeometry x="980" y="-86" width="150" height="260" as="geometry">
            <mxRectangle x="550" y="140" width="160" height="26" as="alternateBounds" />
          </mxGeometry>
        </mxCell>
        <mxCell id="UGLX3xCfsKA-mw3d5sM1-4" value="id_ressource" style="text;align=left;verticalAlign=top;spacingLeft=4;spacingRight=4;overflow=hidden;rotatable=0;points=[[0,0.5],[1,0.5]];portConstraint=eastwest;fontStyle=4" parent="UGLX3xCfsKA-mw3d5sM1-3" vertex="1">
          <mxGeometry y="26" width="150" height="26" as="geometry" />
        </mxCell>
        <mxCell id="UGLX3xCfsKA-mw3d5sM1-5" value="titre_ressource" style="text;align=left;verticalAlign=top;spacingLeft=4;spacingRight=4;overflow=hidden;rotatable=0;points=[[0,0.5],[1,0.5]];portConstraint=eastwest;rounded=0;shadow=0;html=0;fontStyle=0" parent="UGLX3xCfsKA-mw3d5sM1-3" vertex="1">
          <mxGeometry y="52" width="150" height="26" as="geometry" />
        </mxCell>
        <mxCell id="UGLX3xCfsKA-mw3d5sM1-7" value="datetime_moderation" style="text;align=left;verticalAlign=top;spacingLeft=4;spacingRight=4;overflow=hidden;rotatable=0;points=[[0,0.5],[1,0.5]];portConstraint=eastwest;rounded=0;shadow=0;html=0;fontStyle=1" parent="UGLX3xCfsKA-mw3d5sM1-3" vertex="1">
          <mxGeometry y="78" width="150" height="26" as="geometry" />
        </mxCell>
        <mxCell id="UGLX3xCfsKA-mw3d5sM1-8" value="contenu_ressource" style="text;align=left;verticalAlign=top;spacingLeft=4;spacingRight=4;overflow=hidden;rotatable=0;points=[[0,0.5],[1,0.5]];portConstraint=eastwest;rounded=0;shadow=0;html=0;fontStyle=0" parent="UGLX3xCfsKA-mw3d5sM1-3" vertex="1">
          <mxGeometry y="104" width="150" height="26" as="geometry" />
        </mxCell>
        <mxCell id="UGLX3xCfsKA-mw3d5sM1-9" value="validation_moderation : tinyInt" style="text;align=left;verticalAlign=top;spacingLeft=4;spacingRight=4;overflow=hidden;rotatable=0;points=[[0,0.5],[1,0.5]];portConstraint=eastwest;rounded=0;shadow=0;html=0;fontStyle=0" parent="UGLX3xCfsKA-mw3d5sM1-3" vertex="1">
          <mxGeometry y="130" width="150" height="26" as="geometry" />
        </mxCell>
        <mxCell id="UGLX3xCfsKA-mw3d5sM1-10" value="age_minimum_requis" style="text;align=left;verticalAlign=top;spacingLeft=4;spacingRight=4;overflow=hidden;rotatable=0;points=[[0,0.5],[1,0.5]];portConstraint=eastwest;fontStyle=0" parent="UGLX3xCfsKA-mw3d5sM1-3" vertex="1">
          <mxGeometry y="156" width="150" height="26" as="geometry" />
        </mxCell>
        <mxCell id="UGLX3xCfsKA-mw3d5sM1-20" value="compteur_vues" style="text;align=left;verticalAlign=top;spacingLeft=4;spacingRight=4;overflow=hidden;rotatable=0;points=[[0,0.5],[1,0.5]];portConstraint=eastwest;fontStyle=0" parent="UGLX3xCfsKA-mw3d5sM1-3" vertex="1">
          <mxGeometry y="182" width="150" height="26" as="geometry" />
        </mxCell>
        <mxCell id="UGLX3xCfsKA-mw3d5sM1-52" value="" style="ellipse;whiteSpace=wrap;html=1;fontStyle=0" parent="WIyWlLk6GJQsqaUBKTNV-1" vertex="1">
          <mxGeometry x="-160" y="-450" width="120" height="70" as="geometry" />
        </mxCell>
        <mxCell id="UGLX3xCfsKA-mw3d5sM1-53" value="ETRE" style="text;align=left;verticalAlign=top;spacingLeft=4;spacingRight=4;overflow=hidden;rotatable=0;points=[[0,0.5],[1,0.5]];portConstraint=eastwest;fontStyle=4" parent="WIyWlLk6GJQsqaUBKTNV-1" vertex="1">
          <mxGeometry x="-125" y="-430" width="50" height="30" as="geometry" />
        </mxCell>
        <mxCell id="UGLX3xCfsKA-mw3d5sM1-54" value="" style="endArrow=none;html=1;rounded=0;fontStyle=0" parent="WIyWlLk6GJQsqaUBKTNV-1" target="UGLX3xCfsKA-mw3d5sM1-52" edge="1">
          <mxGeometry width="50" height="50" relative="1" as="geometry">
            <mxPoint x="-310" y="-415" as="sourcePoint" />
            <mxPoint x="-100.61999999999989" y="-530" as="targetPoint" />
          </mxGeometry>
        </mxCell>
        <mxCell id="UGLX3xCfsKA-mw3d5sM1-55" value="1,N" style="edgeLabel;html=1;align=center;verticalAlign=middle;resizable=0;points=[];fontStyle=0" parent="UGLX3xCfsKA-mw3d5sM1-54" vertex="1" connectable="0">
          <mxGeometry x="0.3642" y="2" relative="1" as="geometry">
            <mxPoint y="9" as="offset" />
          </mxGeometry>
        </mxCell>
        <mxCell id="UGLX3xCfsKA-mw3d5sM1-56" value="" style="endArrow=none;html=1;rounded=0;fontStyle=0" parent="WIyWlLk6GJQsqaUBKTNV-1" source="UGLX3xCfsKA-mw3d5sM1-52" target="OUUwfjkOK5_4Jc8ald6P-56" edge="1">
          <mxGeometry width="50" height="50" relative="1" as="geometry">
            <mxPoint x="-88" y="-256" as="sourcePoint" />
            <mxPoint x="-89" y="-350" as="targetPoint" />
          </mxGeometry>
        </mxCell>
        <mxCell id="UGLX3xCfsKA-mw3d5sM1-57" value="0,N" style="edgeLabel;html=1;align=center;verticalAlign=middle;resizable=0;points=[];fontStyle=0" parent="UGLX3xCfsKA-mw3d5sM1-56" vertex="1" connectable="0">
          <mxGeometry x="0.3642" y="2" relative="1" as="geometry">
            <mxPoint y="9" as="offset" />
          </mxGeometry>
        </mxCell>
        <mxCell id="UGLX3xCfsKA-mw3d5sM1-58" value="" style="ellipse;whiteSpace=wrap;html=1;fontStyle=0" parent="WIyWlLk6GJQsqaUBKTNV-1" vertex="1">
          <mxGeometry x="620" y="-280" width="120" height="70" as="geometry" />
        </mxCell>
        <mxCell id="UGLX3xCfsKA-mw3d5sM1-59" value="VALIDER" style="text;align=left;verticalAlign=top;spacingLeft=4;spacingRight=4;overflow=hidden;rotatable=0;points=[[0,0.5],[1,0.5]];portConstraint=eastwest;fontStyle=4" parent="WIyWlLk6GJQsqaUBKTNV-1" vertex="1">
          <mxGeometry x="647.5" y="-260" width="65" height="30" as="geometry" />
        </mxCell>
        <mxCell id="UGLX3xCfsKA-mw3d5sM1-60" value="" style="endArrow=none;html=1;rounded=0;fontStyle=0" parent="WIyWlLk6GJQsqaUBKTNV-1" source="UGLX3xCfsKA-mw3d5sM1-58" target="OUUwfjkOK5_4Jc8ald6P-35" edge="1">
          <mxGeometry width="50" height="50" relative="1" as="geometry">
            <mxPoint x="470" y="-55" as="sourcePoint" />
            <mxPoint x="549" y="-182" as="targetPoint" />
          </mxGeometry>
        </mxCell>
        <mxCell id="UGLX3xCfsKA-mw3d5sM1-61" value="0,N" style="edgeLabel;html=1;align=center;verticalAlign=middle;resizable=0;points=[];fontStyle=0" parent="UGLX3xCfsKA-mw3d5sM1-60" vertex="1" connectable="0">
          <mxGeometry x="0.2243" y="2" relative="1" as="geometry">
            <mxPoint as="offset" />
          </mxGeometry>
        </mxCell>
        <mxCell id="UGLX3xCfsKA-mw3d5sM1-62" value="" style="endArrow=none;html=1;rounded=0;fontStyle=0;exitX=1;exitY=0.077;exitDx=0;exitDy=0;exitPerimeter=0;" parent="WIyWlLk6GJQsqaUBKTNV-1" source="zkfFHV4jXpPFQw0GAbJ--20" target="UGLX3xCfsKA-mw3d5sM1-58" edge="1">
          <mxGeometry width="50" height="50" relative="1" as="geometry">
            <mxPoint x="470" y="-55" as="sourcePoint" />
            <mxPoint x="549" y="-182" as="targetPoint" />
            <Array as="points">
              <mxPoint x="680" y="-70" />
            </Array>
          </mxGeometry>
        </mxCell>
        <mxCell id="UGLX3xCfsKA-mw3d5sM1-63" value="1,1" style="edgeLabel;html=1;align=center;verticalAlign=middle;resizable=0;points=[];fontStyle=0" parent="UGLX3xCfsKA-mw3d5sM1-62" vertex="1" connectable="0">
          <mxGeometry x="0.2243" y="2" relative="1" as="geometry">
            <mxPoint x="-28" y="-2" as="offset" />
          </mxGeometry>
        </mxCell>
        <mxCell id="UGLX3xCfsKA-mw3d5sM1-65" value="Relation " style="swimlane;fontStyle=0;align=center;verticalAlign=top;childLayout=stackLayout;horizontal=1;startSize=26;horizontalStack=0;resizeParent=1;resizeLast=0;collapsible=1;marginBottom=0;rounded=0;shadow=0;strokeWidth=1;" parent="WIyWlLk6GJQsqaUBKTNV-1" vertex="1">
          <mxGeometry x="-220" y="-160" width="160" height="80" as="geometry">
            <mxRectangle x="340" y="380" width="170" height="26" as="alternateBounds" />
          </mxGeometry>
        </mxCell>
        <mxCell id="UGLX3xCfsKA-mw3d5sM1-73" value="id_relation" style="text;align=left;verticalAlign=top;spacingLeft=4;spacingRight=4;overflow=hidden;rotatable=0;points=[[0,0.5],[1,0.5]];portConstraint=eastwest;fontStyle=4" parent="UGLX3xCfsKA-mw3d5sM1-65" vertex="1">
          <mxGeometry y="26" width="160" height="34" as="geometry" />
        </mxCell>
        <mxCell id="UGLX3xCfsKA-mw3d5sM1-74" value="" style="endArrow=none;html=1;rounded=0;fontStyle=0;" parent="WIyWlLk6GJQsqaUBKTNV-1" source="-wITAHeO5H85VnHgorWc-17" target="UGLX3xCfsKA-mw3d5sM1-65" edge="1">
          <mxGeometry width="50" height="50" relative="1" as="geometry">
            <mxPoint x="320" y="-105" as="sourcePoint" />
            <mxPoint x="150" y="-104" as="targetPoint" />
          </mxGeometry>
        </mxCell>
        <mxCell id="UGLX3xCfsKA-mw3d5sM1-75" value="0,N" style="edgeLabel;html=1;align=center;verticalAlign=middle;resizable=0;points=[];fontStyle=0" parent="UGLX3xCfsKA-mw3d5sM1-74" vertex="1" connectable="0">
          <mxGeometry x="0.2243" y="2" relative="1" as="geometry">
            <mxPoint as="offset" />
          </mxGeometry>
        </mxCell>
      </root>
    </mxGraphModel>
  </diagram>
</mxfile>
